<?xml version="1.0" standalone="no"?><!DOCTYPE svg PUBLIC "-//W3C//DTD SVG 1.1//EN" "http://www.w3.org/Graphics/SVG/1.1/DTD/svg11.dtd"><svg t="1640080596379" class="icon" viewBox="0 0 1024 1024" version="1.1" xmlns="http://www.w3.org/2000/svg" p-id="3234" xmlns:xlink="http://www.w3.org/1999/xlink" width="200" height="200"><defs></defs><path d="M480.7 438c64.1 21.4 142.8-22 168.6-92.1l60.1-163.2c25.8-70.1-26.9-103.8-93.8-70.6l-19.9 23c-66.8 33.2-138.4 106-159 161.9-20.5 55.7-32.2 101.4 23.7 121.9l20.3 19.1zM430.3 557.1c31.5-63.1-17.8-156.4-87.9-182.2l-163.2-60.1c-70.1-25.8-101.9 32.8-68.7 99.6l21.1 14c33.2 66.8 106 138.4 161.9 159 55.8 20.5 102.3 36.4 122.9-19.5l13.9-10.8zM912.7 622.6L887.1 602c-33.2-66.8-106-138.4-161.8-159-55.8-20.5-115.9-19.5-138.5 35.6-27.9 68 19.6 151.2 89.6 177l163.2 60.1c70.1 25.8 108.4-16.9 75.1-83.8l-2-9.3zM548.7 591.6C489.4 566 399.6 608 373.8 678l-60.1 163.2c-25.8 70.1 26.2 104.4 93 71.2l20.6-23.5c66.8-33.2 138.4-106 159-161.9 20.5-55.8 28.1-104-27.8-124.5l-9.8-10.9z" fill="#2280BF" p-id="3235"></path><path d="M474.2 435.9c55.8 20.5 122.6-19.9 148.4-90l60.1-163.2c25.8-70.1-7.8-100.2-74.6-67l-39 19.5c-66.8 33.2-138.4 106-159 161.9-20.6 55.7 8.2 118.3 64.1 138.8zM432.4 551.8c20.5-55.8-19.9-122.6-90-148.4l-163.2-60.1c-70.1-25.8-100.2 7.8-67 74.6l19.4 39c33.2 66.8 106 138.4 161.9 159 55.8 20.6 118.4-8.2 138.9-64.1zM907.4 611L888 572c-33.2-66.8-106-138.4-161.8-159-55.8-20.5-118.3 8.3-138.9 64.1-20.5 55.8 19.9 122.6 90 148.4l163.2 60.1c70.1 25.8 100.2-7.8 66.9-74.6zM544.9 590.1c-55.8-20.5-122.6 19.9-148.4 90l-60.1 163.2c-25.8 70.1 7.8 100.2 74.6 67l39-19.4c66.8-33.2 138.4-106 159-161.9 20.6-55.8-8.2-118.3-64.1-138.9z" fill="#4EB3FF" p-id="3236"></path></svg>