<?xml version="1.0" standalone="no"?><!DOCTYPE svg PUBLIC "-//W3C//DTD SVG 1.1//EN" "http://www.w3.org/Graphics/SVG/1.1/DTD/svg11.dtd"><svg t="1640080804319" class="icon" viewBox="0 0 1024 1024" version="1.1" xmlns="http://www.w3.org/2000/svg" p-id="5140" xmlns:xlink="http://www.w3.org/1999/xlink" width="200" height="200"><defs></defs><path d="M787.115871 840.816934c-0.041956 0.925069-0.041956 1.842974-0.095167 2.777253 0.318248 10.918677 1.533936 18.204617 1.928932 14.801101 0.137123-2.185782 0.179079-4.370541 0.127913-6.514367C788.899494 849.826122 788.153504 845.812715 787.115871 840.816934z" p-id="5141"></path><path d="M673.111374 491.867474c-9.026584-6.514367-20.844747-6.368034-31.851429-1.89414-5.185093 2.117221-10.328229 4.216022-15.461133 6.325056-2.434445 0.686638-4.757351 1.661849-6.874571 3.059686-9.206686 4.739954-10.92891 11.768021-7.997138 18.34174 0.942465 4.218068 3.925403 8.425903 9.925047 12.017708 94.565772 75.949786 147.211806 183.191252 163.306366 297.376874 1.12359 5.066389 2.125407 9.694803 2.957355 13.723559C793.493116 706.540741 763.253394 581.940932 673.111374 491.867474z" p-id="5142"></path><path d="M242.974847 538.00528c245.24761 104.885815 323.279824-37.978986 323.279824-37.978986C419.086867 381.829312 242.974847 538.00528 242.974847 538.00528z" p-id="5143"></path><path d="M234.899938 64.413032c111.167892 408.099628 365.603769 364.369661 365.603769 364.369661C602.467431 129.475863 234.899938 64.413032 234.899938 64.413032z" p-id="5144"></path><path d="M659.96189 407.252331c159.981644-124.128065 40.859593-346.8261 40.859593-346.8261C530.281365 290.246477 659.96189 407.252331 659.96189 407.252331z" p-id="5145"></path></svg>