<?xml version="1.0" standalone="no"?><!DOCTYPE svg PUBLIC "-//W3C//DTD SVG 1.1//EN" "http://www.w3.org/Graphics/SVG/1.1/DTD/svg11.dtd"><svg t="1643346534706" class="icon" viewBox="0 0 1024 1024" version="1.1" xmlns="http://www.w3.org/2000/svg" p-id="3372" xmlns:xlink="http://www.w3.org/1999/xlink" width="200" height="200"><path d="M832 85.333333H192C134.4 85.333333 85.333333 132.266667 85.333333 192v640c0 59.733333 46.933333 106.666667 106.666667 106.666667h640c59.733333 0 106.666667-46.933333 106.666667-106.666667V192c0-59.733333-46.933333-106.666667-106.666667-106.666667zM192 170.666667h640c12.8 0 21.333333 8.533333 21.333333 21.333333v398.933333L759.466667 426.666667c-17.066667-27.733333-44.8-44.8-76.8-46.933334-32-2.133333-61.866667 12.8-81.066667 40.533334l-123.733333 174.933333-96-117.333333c-19.2-23.466667-49.066667-36.266667-81.066667-34.133334-29.866667 2.133333-57.6 19.2-72.533333 46.933334L170.666667 588.8V192c0-12.8 10.666667-21.333333 21.333333-21.333333z" fill="#80B8F8" p-id="3373"></path><path d="M522.666667 320m-64 0a64 64 0 1 0 128 0 64 64 0 1 0-128 0Z" fill="#80B8F8" p-id="3374"></path></svg>